<svg xmlns="http://www.w3.org/2000/svg" viewBox="0 0 256 256">
  <rect width="256" height="256" fill="#ffffff"/>
  <path d="M128 60c-25 0-45 15-50 35-3-2-7-3-11-3-12 0-22 10-22 22 0 8 4 15 10 19-1 3-1 6-1 9 0 20 12 37 29 44 5 15 19 26 35 26s30-11 35-26c17-7 29-24 29-44 0-3 0-6-1-9 6-4 10-11 10-19 0-12-10-22-22-22-4 0-8 1-11 3-5-20-25-35-50-35z" fill="none" stroke="#3B7DC0" stroke-width="8" stroke-linecap="round" stroke-linejoin="round"/>
  <path d="M40 140h35l8-15 12 30 10-15h15m86 0h-35l-8-15-12 30-10-15h-15" fill="none" stroke="#3B7DC0" stroke-width="6" stroke-linecap="round" stroke-linejoin="round"/>
</svg>